# Blender v2.92.0 OBJ File: 'controller.blend'
# www.blender.org
mtllib controller.mtl
o Cube
v -0.025000 -0.025000 0.201560
v 0.025000 -0.025000 0.201560
v -0.025000 0.025000 0.201560
v 0.025000 0.025000 0.201560
v -0.015288 -0.015288 -0.013426
v -0.025000 -0.025000 0.028334
v 0.015288 -0.015288 -0.013426
v 0.025000 -0.025000 0.028334
v -0.015288 0.015288 -0.013426
v -0.025000 0.025000 0.028334
v 0.015288 0.015288 -0.013426
v 0.025000 0.025000 0.028334
vt 0.375000 0.750000
vt 0.576439 0.750000
vt 0.576439 1.000000
vt 0.375000 1.000000
vt 0.375000 0.000000
vt 0.576439 0.000000
vt 0.576439 0.250000
vt 0.375000 0.250000
vt 0.125000 0.500000
vt 0.375000 0.500000
vt 0.125000 0.750000
vt 0.673561 0.548561
vt 0.826439 0.548561
vt 0.826439 0.701439
vt 0.673561 0.701439
vt 0.576439 0.500000
vt 0.875000 0.750000
vt 0.625000 0.750000
vt 0.875000 0.500000
vt 0.625000 0.500000
vn 1.0000 -0.0000 -0.0000
vn 0.0000 1.0000 -0.0000
vn 0.0000 0.0000 1.0000
vn 0.0000 0.0000 -1.0000
vn -0.0000 -1.0000 0.0000
vn 0.9740 -0.0000 -0.2265
vn -0.0000 -0.9740 -0.2265
vn 0.0000 0.9740 -0.2265
vn -0.9740 0.0000 -0.2265
vn -1.0000 0.0000 0.0000
usemtl Material
s off
f 2/1/1 8/2/1 12/3/1 4/4/1
f 4/5/2 12/6/2 10/7/2 3/8/2
f 3/9/3 1/10/3 2/1/3 4/11/3
f 5/12/4 9/13/4 11/14/4 7/15/4
f 1/10/5 6/16/5 8/2/5 2/1/5
f 7/15/6 11/14/6 12/17/6 8/18/6
f 5/12/7 7/15/7 8/2/7 6/16/7
f 11/14/8 9/13/8 10/19/8 12/17/8
f 9/13/9 5/12/9 6/20/9 10/19/9
f 3/8/10 10/7/10 6/16/10 1/10/10
